<?xml version="1.0" standalone="no"?>
<!DOCTYPE svg PUBLIC "-//W3C//DTD SVG 20010904//EN"
 "http://www.w3.org/TR/2001/REC-SVG-20010904/DTD/svg10.dtd">
<svg version="1.0" xmlns="http://www.w3.org/2000/svg"
 width="438.000000pt" height="427.000000pt" viewBox="0 0 438.000000 427.000000"
 preserveAspectRatio="xMidYMid meet">

<g transform="translate(0.000000,427.000000) scale(0.100000,-0.100000)"
fill="#000000" stroke="none">
<path d="M796 4210 c-109 -96 -245 -387 -265 -565 -8 -69 0 -239 14 -322 l8
-43 -277 0 -276 0 0 -35 0 -35 285 0 284 0 14 -47 c8 -27 24 -87 37 -135 l23
-87 -78 -86 -77 -85 -244 0 -244 0 0 -30 0 -30 220 0 220 0 -53 -72 c-73 -101
-123 -185 -168 -287 l-38 -86 -91 -3 -90 -3 0 -29 0 -30 81 0 81 0 -6 -27
c-21 -99 -17 -260 10 -385 l6 -28 -86 0 -86 0 0 -35 0 -35 98 0 97 0 45 -87
c79 -153 218 -274 383 -334 l52 -18 -337 -1 -338 0 0 -30 0 -30 540 0 540 0 5
-22 c3 -13 23 -96 45 -186 46 -186 50 -255 20 -318 -46 -95 -171 -173 -289
-182 -82 -5 -138 9 -193 51 -38 29 -93 95 -85 103 1 2 20 -1 41 -6 76 -17 182
31 227 104 29 45 22 130 -14 185 -92 139 -330 94 -403 -76 -20 -48 -14 -132
14 -195 72 -164 296 -257 483 -202 181 54 290 172 291 316 0 52 -49 278 -88
411 -5 16 77 17 1620 17 l1626 0 0 30 0 30 -1630 0 c-1061 0 -1630 3 -1630 10
0 5 24 22 53 36 82 42 186 155 239 260 24 49 47 99 50 112 l6 22 1456 0 1456
0 0 35 0 35 -1445 0 -1445 0 0 83 c0 127 -39 246 -105 326 l-27 31 599 0 598
0 0 -64 c0 -84 9 -92 68 -67 l47 20 0 -140 c0 -119 2 -141 16 -146 28 -10 34
18 34 163 l0 141 83 30 82 29 5 -150 c4 -133 7 -151 23 -154 16 -3 17 10 17
158 l0 160 26 10 c15 6 294 10 725 10 l699 0 0 30 0 30 -663 0 -663 0 0 53 c1
28 -2 60 -6 69 -7 16 -11 16 -49 3 -73 -26 -70 -34 -67 153 l3 167 723 3 722
2 0 30 0 30 -669 0 -669 0 10 37 c10 38 3 119 -12 128 -4 3 -24 -2 -44 -10
-67 -28 -66 -29 -66 115 0 123 -1 130 -20 130 -18 0 -20 -8 -22 -142 l-3 -142
-70 -27 c-38 -15 -76 -28 -82 -28 -10 -1 -13 31 -13 127 0 131 -7 159 -34 149
-14 -5 -16 -28 -16 -155 l0 -148 -47 -17 c-37 -13 -81 -17 -186 -17 l-138 0 3
87 3 87 44 17 c59 21 71 41 71 114 0 80 -9 87 -71 64 l-49 -19 0 45 0 45 445
0 445 0 0 -65 c0 -77 10 -85 70 -61 22 9 42 16 45 16 2 0 6 -64 7 -142 3 -119
5 -143 18 -143 13 0 15 25 18 152 l3 151 85 31 c47 17 87 31 90 31 2 0 4 -70
4 -156 0 -143 1 -155 18 -152 15 3 17 20 20 163 2 112 6 161 15 167 6 4 189 8
405 8 l392 0 0 35 0 35 -345 0 -345 0 0 48 c0 27 -6 56 -13 66 -12 17 -16 17
-51 2 -21 -9 -42 -16 -47 -16 -5 0 -9 81 -9 179 l0 179 49 17 c40 13 52 22 60
47 15 42 14 110 -2 131 -11 16 -16 17 -56 2 -24 -8 -45 -15 -47 -15 -2 0 -4
58 -4 129 0 101 -3 130 -14 134 -8 3 -17 3 -20 0 -3 -4 -6 -68 -6 -143 l0
-137 -83 -32 c-46 -17 -86 -31 -90 -31 -3 0 -8 62 -9 137 -3 122 -5 138 -20
141 -17 3 -18 -9 -18 -146 l0 -150 -46 -18 c-61 -23 -74 -45 -74 -122 0 -73
10 -82 69 -59 21 9 41 13 45 10 3 -4 6 -84 6 -180 l0 -173 -505 0 -506 0 3
102 3 101 40 14 c59 20 75 44 75 117 0 81 -9 90 -71 65 l-49 -19 0 135 c0 128
-1 135 -20 135 -18 0 -20 -8 -22 -141 l-3 -142 -85 -32 -85 -32 -5 141 c-4
116 -8 141 -20 141 -13 0 -15 -24 -18 -148 l-3 -149 -49 -21 c-37 -15 -52 -28
-60 -50 -13 -38 -13 -103 0 -127 10 -18 13 -18 51 -5 23 8 45 15 50 15 5 0 9
-22 9 -50 l0 -50 -461 0 c-434 0 -460 1 -455 18 43 147 32 371 -25 547 -51
154 -164 336 -236 377 l-31 19 -36 -31z m142 -222 c68 -73 116 -252 110 -403
-5 -107 -19 -150 -81 -252 l-31 -53 -162 0 -161 0 -7 61 c-11 106 -7 242 9
304 33 124 135 280 222 340 46 31 73 32 101 3z m2592 -452 l0 -174 -86 -31
c-47 -17 -87 -31 -90 -31 -2 0 -4 80 -4 178 l0 177 73 27 c116 43 107 55 107
-146z m-1270 -166 l0 -90 -90 0 -91 0 3 61 3 61 75 28 c41 16 81 29 88 29 9 1
12 -23 12 -89z m-1388 -176 c-11 -21 -184 -216 -187 -212 -3 3 -55 212 -55
222 0 3 56 6 125 6 111 0 125 -2 117 -16z m1166 -76 l-3 -92 -45 -17 c-26 -10
-50 -26 -57 -40 -17 -31 -16 -120 0 -143 12 -16 15 -16 60 3 l47 20 0 -39 0
-40 -601 0 c-589 0 -601 0 -588 19 8 10 43 58 78 107 63 85 136 215 159 282
l11 32 471 0 471 0 -3 -92z m220 40 l-3 -52 -75 -28 c-41 -15 -81 -28 -87 -28
-9 0 -13 23 -13 80 l0 80 91 0 90 0 -3 -52z m2 -308 l0 -80 -91 0 -90 0 3 47
3 48 85 32 c47 17 86 32 88 32 1 1 2 -35 2 -79z m-220 -215 c0 -68 2 -75 20
-75 18 0 20 7 20 75 l0 75 90 0 90 0 0 -45 c0 -38 3 -45 20 -45 17 0 20 7 20
45 l0 45 125 0 125 0 0 -34 c0 -19 4 -46 10 -60 9 -25 10 -25 51 -11 23 8 46
15 50 15 6 0 8 -77 7 -177 l-3 -178 -688 -3 -688 -2 -57 26 c-86 39 -183 57
-274 50 -43 -4 -83 -9 -90 -11 -10 -4 -27 47 -62 179 -26 102 -45 189 -41 195
4 8 202 11 641 11 l634 0 0 -75z m848 -112 l-3 -177 -75 -28 c-41 -15 -78 -28
-82 -28 -5 0 -8 80 -8 178 l0 177 73 27 c39 14 78 27 85 27 10 1 12 -38 10
-176z m-2134 -37 c20 -88 36 -166 36 -175 0 -9 -18 -23 -43 -33 -34 -15 -72
-18 -195 -18 l-153 0 15 28 c32 59 292 369 302 360 1 -2 19 -75 38 -162z
m-152 -357 l-37 -72 0 -148 0 -149 -131 0 -131 0 -6 30 c-26 125 -14 239 36
353 l26 57 140 0 139 0 -36 -71z m536 -54 c81 -19 128 -44 174 -92 44 -46 55
-73 64 -158 l7 -65 -199 2 -198 3 -37 155 c-21 85 -38 156 -39 157 0 1 12 4
28 6 61 9 140 6 200 -8z m-269 -42 c5 -21 23 -91 39 -155 l30 -118 -151 0
-150 0 7 61 c11 113 58 182 151 225 28 13 53 24 57 24 4 0 12 -17 17 -37z
m-248 -380 c33 -53 98 -122 139 -148 66 -41 72 -35 15 17 -48 44 -115 137
-115 161 0 4 67 7 148 7 l148 0 43 -175 c24 -97 41 -179 37 -182 -21 -22 -233
-30 -318 -12 -160 33 -304 156 -376 322 l-21 47 139 0 138 0 23 -37z m744 5
c-21 -99 -133 -242 -231 -295 l-42 -23 -41 165 c-22 90 -41 169 -41 175 0 6
65 10 181 10 l181 0 -7 -32z"/>
</g>
</svg>
