<?xml version="1.0" standalone="no"?>
<!DOCTYPE svg PUBLIC "-//W3C//DTD SVG 20010904//EN"
 "http://www.w3.org/TR/2001/REC-SVG-20010904/DTD/svg10.dtd">
<svg version="1.0" xmlns="http://www.w3.org/2000/svg"
 width="139.000000pt" height="143.000000pt" viewBox="0 0 139.000000 143.000000"
 preserveAspectRatio="xMidYMid meet">
<metadata>
Created by potrace 1.16, written by Peter Selinger 2001-2019
</metadata>
<g transform="translate(0.000000,143.000000) scale(0.100000,-0.100000)"
fill="#000000" stroke="none">
<path d="M611 1258 c-5 -13 -88 -209 -185 -437 -181 -427 -201 -464 -261 -479
-16 -5 -30 -15 -30 -23 0 -11 27 -15 143 -17 137 -2 142 -2 142 18 0 15 -7 20
-28 20 -16 0 -36 6 -47 13 -25 19 -17 72 27 173 l33 79 191 3 191 2 12 -27
c26 -56 61 -167 61 -194 0 -31 -23 -49 -64 -49 -19 0 -26 -5 -26 -20 0 -19 7
-20 181 -20 166 0 180 1 177 18 -2 10 -14 18 -29 20 -54 6 -57 11 -319 645
-99 240 -126 297 -142 297 -10 0 -22 -10 -27 -22z m73 -393 c43 -96 76 -178
74 -181 -3 -2 -75 -3 -161 -2 l-155 3 77 181 c42 100 79 180 82 179 3 -2 40
-83 83 -180z"/>
</g>
</svg>
