<?xml version="1.0" standalone="no"?>
<!DOCTYPE svg PUBLIC "-//W3C//DTD SVG 20010904//EN"
 "http://www.w3.org/TR/2001/REC-SVG-20010904/DTD/svg10.dtd">
<svg version="1.0" xmlns="http://www.w3.org/2000/svg"
 width="121.000000pt" height="146.000000pt" viewBox="0 0 121.000000 146.000000"
 preserveAspectRatio="xMidYMid meet">
<metadata>
Created by potrace 1.16, written by Peter Selinger 2001-2019
</metadata>
<g transform="translate(0.000000,146.000000) scale(0.100000,-0.100000)"
fill="#000000" stroke="none">
<path d="M170 1147 c0 -10 15 -18 41 -22 53 -9 76 -33 84 -87 3 -24 5 -204 3
-400 -3 -402 0 -387 -80 -397 -31 -4 -44 -11 -46 -24 -4 -17 11 -18 295 -15
297 3 298 3 353 29 136 63 201 174 170 289 -15 58 -100 143 -159 161 -47 14
-52 24 -16 33 37 9 105 75 126 121 37 80 18 157 -56 230 -85 84 -104 89 -432
93 -245 3 -283 1 -283 -11z m551 -80 c102 -54 126 -193 48 -282 -40 -45 -79
-55 -218 -55 l-113 0 4 159 c5 205 2 201 138 201 82 0 104 -4 141 -23z m4
-426 c169 -78 145 -328 -36 -371 -50 -12 -184 -9 -221 5 -21 8 -28 68 -28 241
l0 144 123 0 c97 0 130 -4 162 -19z"/>
</g>
</svg>
