<?xml version="1.0" standalone="no"?>
<!DOCTYPE svg PUBLIC "-//W3C//DTD SVG 20010904//EN"
 "http://www.w3.org/TR/2001/REC-SVG-20010904/DTD/svg10.dtd">
<svg version="1.0" xmlns="http://www.w3.org/2000/svg"
 width="118.000000pt" height="137.000000pt" viewBox="0 0 118.000000 137.000000"
 preserveAspectRatio="xMidYMid meet">
<metadata>
Created by potrace 1.16, written by Peter Selinger 2001-2019
</metadata>
<g transform="translate(0.000000,137.000000) scale(0.100000,-0.100000)"
fill="#000000" stroke="none">
<path d="M130 1166 c0 -10 15 -17 43 -21 90 -14 87 0 87 -448 0 -374 -1 -385
-21 -411 -13 -17 -30 -26 -49 -26 -38 0 -60 -9 -60 -26 0 -12 64 -14 395 -14
l394 0 11 43 c6 23 20 74 31 113 23 86 24 94 2 94 -11 0 -29 -22 -49 -58 -22
-42 -43 -65 -79 -87 -48 -30 -50 -30 -216 -33 -224 -4 -209 -19 -209 214 l0
175 160 -3 160 -3 31 -31 c17 -17 34 -47 38 -65 4 -20 13 -34 21 -34 13 0 15
28 15 170 0 142 -2 170 -15 170 -8 0 -17 -14 -21 -34 -4 -18 -21 -48 -38 -65
l-31 -31 -160 -3 -160 -3 0 160 c0 214 -14 201 211 201 l171 0 33 -33 c19 -19
37 -47 40 -63 11 -49 14 -54 30 -54 13 0 15 18 15 110 l0 110 -390 0 c-333 0
-390 -2 -390 -14z"/>
</g>
</svg>
