<?xml version="1.0" standalone="no"?>
<!DOCTYPE svg PUBLIC "-//W3C//DTD SVG 20010904//EN"
 "http://www.w3.org/TR/2001/REC-SVG-20010904/DTD/svg10.dtd">
<svg version="1.0" xmlns="http://www.w3.org/2000/svg"
 width="123.000000pt" height="115.000000pt" viewBox="0 0 123.000000 115.000000"
 preserveAspectRatio="xMidYMid meet">
<metadata>
Created by potrace 1.16, written by Peter Selinger 2001-2019
</metadata>
<g transform="translate(0.000000,115.000000) scale(0.100000,-0.100000)"
fill="#000000" stroke="none">
<path d="M503 1026 c-303 -77 -466 -428 -333 -714 95 -203 353 -310 618 -256
42 8 105 28 139 44 l63 29 0 186 c0 107 4 194 10 205 6 11 28 24 50 30 24 6
40 17 40 26 0 12 -26 14 -182 12 -126 -2 -183 -7 -185 -15 -2 -6 13 -14 38
-18 82 -14 92 -46 87 -275 l-3 -145 -65 -23 c-85 -30 -191 -26 -265 9 -97 46
-183 163 -214 293 -15 63 -15 220 0 282 42 175 157 281 315 292 91 6 166 -15
221 -63 44 -37 98 -117 109 -160 3 -14 13 -25 21 -25 13 0 15 10 10 58 -4 31
-9 99 -13 150 -5 68 -10 92 -20 92 -8 0 -14 -6 -14 -13 0 -7 -6 -21 -13 -31
-13 -17 -17 -17 -98 9 -100 32 -236 42 -316 21z"/>
</g>
</svg>
