<?xml version="1.0" standalone="no"?>
<!DOCTYPE svg PUBLIC "-//W3C//DTD SVG 20010904//EN"
 "http://www.w3.org/TR/2001/REC-SVG-20010904/DTD/svg10.dtd">
<svg version="1.0" xmlns="http://www.w3.org/2000/svg"
 width="215.000000pt" height="144.000000pt" viewBox="0 0 215.000000 144.000000"
 preserveAspectRatio="xMidYMid meet">
<metadata>
Created by potrace 1.16, written by Peter Selinger 2001-2019
</metadata>
<g transform="translate(0.000000,144.000000) scale(0.100000,-0.100000)"
fill="#000000" stroke="none">
<path d="M338 1045 c-3 -3 -36 -12 -74 -18 -50 -10 -70 -18 -72 -30 -3 -14 4
-17 36 -17 l40 0 6 -92 c4 -51 3 -136 -1 -188 l-8 -95 -35 -5 c-20 -3 -35 -11
-35 -18 0 -10 29 -14 123 -15 104 -2 122 0 120 13 -2 9 -16 16 -34 18 -28 3
-32 8 -38 40 -3 20 -6 93 -6 160 l0 124 31 29 c54 51 140 47 176 -7 18 -28 27
-182 16 -274 -8 -65 -8 -65 -43 -70 -21 -3 -35 -11 -35 -19 0 -11 25 -13 125
-13 75 1 126 5 128 11 2 6 -9 13 -25 16 -15 4 -33 8 -39 10 -15 4 -24 78 -24
201 0 101 1 104 31 138 36 41 84 55 130 36 58 -25 64 -45 65 -238 l0 -174 82
-1 c68 -2 82 1 80 13 -2 8 -17 17 -33 20 -27 5 -31 9 -37 55 -3 28 -7 104 -7
170 -1 101 -4 125 -21 153 -47 77 -142 95 -222 42 -25 -17 -51 -37 -58 -45
-10 -12 -16 -8 -41 19 -62 71 -155 75 -234 11 l-47 -39 3 39 c4 34 -8 55 -23
40z"/>
<path d="M1248 1035 c-66 -24 -88 -44 -88 -81 0 -47 17 -51 37 -9 45 94 213
56 213 -49 l0 -33 -87 -17 c-146 -28 -188 -57 -204 -140 -16 -90 32 -146 126
-146 44 0 57 5 108 45 l57 45 0 -40 0 -40 80 0 c83 0 105 13 48 28 l-33 8 -5
176 c-4 158 -7 180 -26 205 -43 59 -140 80 -226 48z m172 -266 c0 -74 -9 -92
-64 -124 -96 -56 -172 -11 -146 86 12 44 42 65 125 85 86 21 85 22 85 -47z"/>
<path d="M1695 1034 c-27 -7 -63 -16 -78 -19 -40 -8 -28 -29 19 -35 l39 -5 0
-290 c0 -327 -3 -342 -70 -366 -38 -14 -48 -39 -15 -39 65 0 129 60 157 147
22 68 32 624 12 622 -8 -1 -36 -7 -64 -15z"/>
</g>
</svg>
