<?xml version="1.0" standalone="no"?>
<!DOCTYPE svg PUBLIC "-//W3C//DTD SVG 20010904//EN"
 "http://www.w3.org/TR/2001/REC-SVG-20010904/DTD/svg10.dtd">
<svg version="1.0" xmlns="http://www.w3.org/2000/svg"
 width="214.000000pt" height="116.000000pt" viewBox="0 0 214.000000 116.000000"
 preserveAspectRatio="xMidYMid meet">
<metadata>
Created by potrace 1.16, written by Peter Selinger 2001-2019
</metadata>
<g transform="translate(0.000000,116.000000) scale(0.100000,-0.100000)"
fill="#000000" stroke="none">
<path d="M378 765 c-3 -3 -36 -12 -74 -18 -50 -10 -70 -18 -72 -30 -3 -14 4
-17 36 -17 l40 0 6 -92 c4 -51 3 -136 -1 -188 l-8 -95 -35 -5 c-20 -3 -35 -11
-35 -18 0 -10 29 -14 123 -15 104 -2 122 0 120 13 -2 9 -16 16 -34 18 -28 3
-32 8 -38 40 -3 20 -6 93 -6 160 l0 124 31 29 c54 51 140 47 176 -7 18 -28 27
-182 16 -274 -8 -65 -8 -65 -43 -70 -21 -3 -35 -11 -35 -19 0 -11 25 -13 125
-13 75 1 126 5 128 11 2 6 -9 13 -25 16 -15 4 -33 8 -39 10 -15 4 -24 78 -24
201 0 101 1 104 31 138 36 41 84 55 130 36 58 -25 64 -45 65 -238 l0 -174 82
-1 c68 -2 82 1 80 13 -2 8 -17 17 -33 20 -27 5 -31 9 -37 55 -3 28 -7 104 -7
170 -1 101 -4 125 -21 153 -47 77 -142 95 -222 42 -25 -17 -51 -37 -58 -45
-10 -12 -16 -8 -41 19 -62 71 -155 75 -234 11 l-47 -39 3 39 c4 34 -8 55 -23
40z"/>
<path d="M1235 754 c-27 -7 -63 -16 -78 -19 -40 -8 -28 -29 19 -35 l39 -5 3
-155 c4 -202 1 -218 -41 -222 -19 -2 -33 -9 -35 -18 -2 -13 16 -15 120 -13 94
1 123 5 123 15 0 7 -15 15 -35 18 l-35 5 -3 223 c-2 168 -5 222 -15 221 -6 -1
-34 -7 -62 -15z"/>
<path d="M1578 765 c-3 -3 -36 -12 -74 -18 -50 -10 -70 -18 -72 -30 -3 -14 4
-17 36 -17 l40 0 5 -92 c4 -51 3 -136 -1 -188 l-7 -95 -35 -5 c-20 -3 -35 -11
-35 -18 0 -10 29 -14 123 -15 104 -2 122 0 120 13 -2 9 -16 16 -34 18 -40 4
-44 21 -44 187 0 142 9 161 85 191 38 14 52 15 84 6 73 -22 76 -31 79 -236 l3
-181 82 2 c82 1 114 17 60 28 -15 4 -33 8 -39 10 -8 2 -13 57 -16 172 -4 196
-13 223 -81 254 -48 21 -122 25 -154 6 -12 -6 -40 -27 -63 -46 l-42 -34 3 43
c3 39 -8 60 -23 45z"/>
</g>
</svg>
