<?xml version="1.0" standalone="no"?>
<!DOCTYPE svg PUBLIC "-//W3C//DTD SVG 20010904//EN"
 "http://www.w3.org/TR/2001/REC-SVG-20010904/DTD/svg10.dtd">
<svg version="1.0" xmlns="http://www.w3.org/2000/svg"
 width="600.000000pt" height="600.000000pt" viewBox="0 0 600.000000 600.000000"
 preserveAspectRatio="xMidYMid meet">
<metadata>
Created by potrace 1.16, written by Peter Selinger 2001-2019
</metadata>
<g transform="translate(0.000000,600.000000) scale(0.100000,-0.100000)"
fill="#000000" stroke="none">
<path d="M2972 5988 c-9 -9 -12 -87 -12 -308 l0 -297 -57 -12 c-194 -43 -482
-165 -654 -278 -541 -353 -887 -893 -1023 -1592 -53 -271 -60 -354 -61 -711 0
-275 3 -355 18 -450 42 -265 105 -471 207 -677 135 -272 317 -486 570 -670
221 -160 533 -291 837 -349 76 -15 144 -28 151 -30 9 -3 12 -71 12 -297 0
-240 3 -297 14 -306 9 -8 46 -11 102 -9 83 3 89 5 101 28 9 18 13 97 13 291
l0 266 158 12 c486 38 839 177 1058 414 129 141 235 323 359 617 63 151 65
171 19 245 -37 57 -69 75 -137 75 -98 0 -93 6 -226 -262 -66 -134 -141 -274
-167 -313 -133 -200 -259 -294 -472 -353 -89 -24 -112 -26 -287 -27 -104 0
-216 4 -247 8 l-58 8 0 2013 0 2014 31 6 c47 9 138 7 225 -5 128 -18 414 -106
414 -128 0 -4 -21 -13 -47 -19 -231 -62 -411 -214 -514 -435 -52 -112 -64
-177 -64 -342 0 -168 15 -234 81 -369 149 -301 481 -479 816 -437 186 23 336
98 473 235 104 105 152 182 197 316 31 90 32 103 33 250 0 216 -31 315 -165
530 -304 487 -750 743 -1337 767 l-143 6 0 266 c0 194 -4 273 -13 291 -12 24
-18 25 -102 28 -62 2 -94 -1 -103 -10z m-12 -2964 l0 -1955 -22 6 c-208 63
-422 205 -561 373 -228 276 -342 620 -378 1142 -27 387 30 1006 130 1415 127
518 298 771 611 904 49 21 193 69 213 70 4 1 7 -879 7 -1955z"/>
</g>
</svg>
