<?xml version="1.0" standalone="no"?>
<!DOCTYPE svg PUBLIC "-//W3C//DTD SVG 20010904//EN"
 "http://www.w3.org/TR/2001/REC-SVG-20010904/DTD/svg10.dtd">
<svg version="1.0" xmlns="http://www.w3.org/2000/svg"
 width="120.000000pt" height="166.000000pt" viewBox="0 0 120.000000 166.000000"
 preserveAspectRatio="xMidYMid meet">
<metadata>
Created by potrace 1.16, written by Peter Selinger 2001-2019
</metadata>
<g transform="translate(0.000000,166.000000) scale(0.100000,-0.100000)"
fill="#000000" stroke="none">
<path d="M430 1645 c-197 -44 -365 -187 -392 -332 -20 -107 21 -258 98 -358
33 -43 105 -92 158 -106 l41 -11 -46 -12 c-51 -14 -129 -67 -181 -123 -131
-146 -143 -338 -28 -483 103 -130 359 -207 603 -181 233 26 398 125 480 291
29 59 32 74 35 177 3 103 2 117 -22 168 -36 79 -112 172 -166 203 -25 14 -47
27 -49 28 -2 2 26 32 63 67 90 87 129 171 134 282 5 95 -7 143 -48 208 -39 63
-122 115 -247 157 -87 29 -113 33 -233 36 -94 3 -155 -1 -200 -11z m274 -156
c105 -20 197 -96 212 -175 13 -72 -38 -208 -101 -262 -34 -30 -53 -37 -100
-33 -33 3 -242 150 -294 207 -54 59 -75 116 -60 166 28 100 151 134 343 97z
m-191 -775 c101 -51 218 -120 247 -147 84 -76 124 -159 109 -226 -24 -108
-106 -171 -234 -179 -182 -11 -338 76 -382 215 -21 68 -9 141 39 220 42 69
115 153 134 153 8 0 47 -16 87 -36z"/>
</g>
</svg>
