<?xml version="1.0" standalone="no"?>
<!DOCTYPE svg PUBLIC "-//W3C//DTD SVG 20010904//EN"
 "http://www.w3.org/TR/2001/REC-SVG-20010904/DTD/svg10.dtd">
<svg version="1.0" xmlns="http://www.w3.org/2000/svg"
 width="120.000000pt" height="166.000000pt" viewBox="0 0 120.000000 166.000000"
 preserveAspectRatio="xMidYMid meet">
<metadata>
Created by potrace 1.16, written by Peter Selinger 2001-2019
</metadata>
<g transform="translate(0.000000,166.000000) scale(0.100000,-0.100000)"
fill="#000000" stroke="none">
<path d="M1035 1633 c-33 -12 -120 -14 -502 -11 l-463 3 -1 -60 c0 -33 -6
-217 -13 -410 -7 -235 -8 -352 -1 -357 17 -13 105 -9 134 7 16 8 34 27 40 43
32 78 120 116 233 102 92 -11 133 -36 201 -121 57 -71 85 -142 98 -250 9 -82
8 -105 -5 -160 -39 -149 -105 -212 -240 -231 -90 -13 -147 -1 -172 37 -20 31
-8 55 51 95 60 41 79 80 79 155 -1 62 -16 102 -61 162 -77 101 -278 98 -345
-5 -43 -65 -53 -103 -53 -192 0 -105 24 -188 67 -230 53 -53 171 -106 283
-126 135 -24 320 -24 400 0 129 38 249 123 335 238 76 101 100 173 100 305 0
167 -36 261 -136 352 -123 113 -197 135 -439 135 -203 0 -279 -16 -416 -91 -4
-2 -12 10 -19 27 -16 39 -8 150 13 180 36 52 35 52 373 50 173 0 356 2 406 6
131 10 133 14 140 178 6 136 -2 187 -30 185 -10 -1 -35 -8 -57 -16z"/>
</g>
</svg>
