<?xml version="1.0" standalone="no"?>
<!DOCTYPE svg PUBLIC "-//W3C//DTD SVG 20010904//EN"
 "http://www.w3.org/TR/2001/REC-SVG-20010904/DTD/svg10.dtd">
<svg version="1.0" xmlns="http://www.w3.org/2000/svg"
 width="120.000000pt" height="166.000000pt" viewBox="0 0 120.000000 166.000000"
 preserveAspectRatio="xMidYMid meet">
<metadata>
Created by potrace 1.16, written by Peter Selinger 2001-2019
</metadata>
<g transform="translate(0.000000,166.000000) scale(0.100000,-0.100000)"
fill="#000000" stroke="none">
<path d="M416 1638 c-3 -13 -8 -45 -11 -73 -15 -119 -71 -340 -117 -465 -69
-187 -125 -290 -213 -394 l-75 -88 0 -68 0 -67 68 -6 c37 -4 178 -7 315 -7
l247 0 0 -63 c0 -35 -7 -86 -15 -114 -18 -59 -53 -88 -123 -99 l-42 -7 0 -58
0 -59 375 0 376 0 -3 62 -3 62 -44 13 c-25 7 -54 22 -67 34 -26 25 -54 118
-54 182 l0 47 85 0 85 0 0 80 0 79 -80 -6 -80 -6 0 337 c0 314 -1 336 -18 336
-9 0 -102 -84 -205 -188 l-187 -187 0 -148 0 -147 -58 0 c-33 0 -134 -3 -225
-7 -114 -4 -167 -3 -167 4 0 6 89 100 198 209 201 201 366 401 540 653 59 85
72 111 72 143 l0 38 -285 0 -285 0 -4 -22z"/>
</g>
</svg>
