<?xml version="1.0" standalone="no"?>
<!DOCTYPE svg PUBLIC "-//W3C//DTD SVG 20010904//EN"
 "http://www.w3.org/TR/2001/REC-SVG-20010904/DTD/svg10.dtd">
<svg version="1.0" xmlns="http://www.w3.org/2000/svg"
 width="120.000000pt" height="166.000000pt" viewBox="0 0 120.000000 166.000000"
 preserveAspectRatio="xMidYMid meet">
<metadata>
Created by potrace 1.16, written by Peter Selinger 2001-2019
</metadata>
<g transform="translate(0.000000,166.000000) scale(0.100000,-0.100000)"
fill="#000000" stroke="none">
<path d="M475 1649 c-123 -20 -262 -94 -340 -181 -25 -27 -62 -84 -82 -126
-37 -73 -38 -80 -38 -181 0 -94 3 -113 26 -162 37 -79 121 -159 215 -206 76
-37 80 -38 188 -38 96 0 126 4 222 33 107 31 143 33 145 8 7 -108 -24 -290
-73 -418 -50 -134 -132 -199 -212 -168 -32 12 -32 27 -1 110 12 31 16 67 13
116 -4 89 -35 140 -111 184 -46 28 -59 31 -119 28 -58 -3 -73 -8 -122 -42 -75
-51 -98 -100 -100 -209 -1 -73 2 -88 29 -135 45 -83 95 -126 190 -166 185 -77
334 -71 520 21 106 53 239 192 293 304 64 134 74 187 79 411 7 266 -16 379
-108 535 -51 85 -162 192 -239 230 -111 54 -249 73 -375 52z m210 -172 c121
-127 108 -484 -22 -559 -45 -27 -126 -27 -160 -1 -60 44 -93 150 -93 296 0
197 67 307 184 307 45 0 53 -4 91 -43z"/>
</g>
</svg>
