<?xml version="1.0" standalone="no"?>
<!DOCTYPE svg PUBLIC "-//W3C//DTD SVG 20010904//EN"
 "http://www.w3.org/TR/2001/REC-SVG-20010904/DTD/svg10.dtd">
<svg version="1.0" xmlns="http://www.w3.org/2000/svg"
 width="120.000000pt" height="166.000000pt" viewBox="0 0 120.000000 166.000000"
 preserveAspectRatio="xMidYMid meet">
<metadata>
Created by potrace 1.16, written by Peter Selinger 2001-2019
</metadata>
<g transform="translate(0.000000,166.000000) scale(0.100000,-0.100000)"
fill="#000000" stroke="none">
<path d="M95 1648 c-2 -7 -24 -111 -48 -230 -32 -154 -41 -220 -34 -227 21
-21 47 -11 72 28 l26 39 296 7 c257 7 500 2 512 -10 2 -3 -45 -55 -104 -117
-177 -187 -285 -336 -408 -568 -92 -174 -134 -280 -157 -395 -11 -58 -20 -110
-20 -116 0 -5 100 -9 254 -9 l253 0 6 113 c8 160 53 436 89 547 35 111 91 219
158 310 85 115 117 200 159 425 l38 200 -171 6 c-94 4 -339 7 -544 8 -290 1
-374 -2 -377 -11z"/>
</g>
</svg>
