<?xml version="1.0" standalone="no"?>
<!DOCTYPE svg PUBLIC "-//W3C//DTD SVG 20010904//EN"
 "http://www.w3.org/TR/2001/REC-SVG-20010904/DTD/svg10.dtd">
<svg version="1.0" xmlns="http://www.w3.org/2000/svg"
 width="142.000000pt" height="207.000000pt" viewBox="0 0 142.000000 207.000000"
 preserveAspectRatio="xMidYMid meet">
<metadata>
Created by potrace 1.16, written by Peter Selinger 2001-2019
</metadata>
<g transform="translate(0.000000,207.000000) scale(0.100000,-0.100000)"
fill="#000000" stroke="none">
<path d="M550 1807 l0 -183 -107 -37 c-60 -21 -111 -37 -115 -37 -5 0 -8 81
-8 180 l0 180 -30 0 -30 0 -2 -192 -3 -193 -67 -20 -68 -20 0 -112 0 -111 62
19 c35 10 66 19 71 19 4 0 7 -94 7 -209 l0 -210 -70 -22 -70 -23 0 -112 0
-113 57 20 c31 10 62 19 70 19 10 0 13 -34 13 -170 l0 -170 30 0 30 0 0 184 0
184 108 36 c59 20 110 36 115 36 4 0 7 -81 7 -180 l0 -180 30 0 30 0 0 189 0
190 70 22 70 23 0 108 c0 120 2 118 -70 93 -74 -26 -70 -38 -70 194 l0 209 70
21 70 22 0 109 c0 61 -4 110 -8 110 -5 0 -35 -9 -67 -20 -32 -11 -60 -20 -62
-20 -1 0 -3 79 -3 175 l0 175 -30 0 -30 0 0 -183z m0 -621 l0 -214 -100 -31
c-55 -17 -106 -34 -115 -37 -13 -5 -15 20 -15 208 l0 214 108 36 c59 20 110
37 115 37 4 1 7 -95 7 -213z"/>
</g>
</svg>
