<?xml version="1.0" standalone="no"?>
<!DOCTYPE svg PUBLIC "-//W3C//DTD SVG 20010904//EN"
 "http://www.w3.org/TR/2001/REC-SVG-20010904/DTD/svg10.dtd">
<svg version="1.0" xmlns="http://www.w3.org/2000/svg"
 width="120.000000pt" height="166.000000pt" viewBox="0 0 120.000000 166.000000"
 preserveAspectRatio="xMidYMid meet">
<metadata>
Created by potrace 1.16, written by Peter Selinger 2001-2019
</metadata>
<g transform="translate(0.000000,166.000000) scale(0.100000,-0.100000)"
fill="#000000" stroke="none">
<path d="M514 1641 c-226 -65 -419 -265 -478 -496 -40 -160 -46 -410 -12 -567
61 -281 249 -480 496 -524 142 -26 261 -8 398 59 109 52 195 135 245 236 36
73 37 75 37 194 0 147 -14 182 -104 272 -74 74 -143 111 -238 131 -89 19 -151
13 -295 -27 -59 -16 -118 -29 -132 -27 -24 3 -26 8 -29 53 -8 124 54 378 117
477 40 63 78 82 158 79 44 -1 52 -33 22 -91 -17 -32 -22 -60 -23 -119 -1 -65
3 -82 26 -122 45 -77 140 -126 225 -116 66 7 151 68 182 131 20 40 25 66 25
130 1 71 -2 87 -27 129 -62 105 -125 151 -271 196 -87 27 -233 28 -322 2z
m192 -850 c103 -63 139 -352 63 -509 -45 -92 -146 -129 -220 -79 -68 46 -117
197 -106 326 8 86 41 192 73 230 42 51 135 66 190 32z"/>
</g>
</svg>
