<?xml version="1.0" standalone="no"?>
<!DOCTYPE svg PUBLIC "-//W3C//DTD SVG 20010904//EN"
 "http://www.w3.org/TR/2001/REC-SVG-20010904/DTD/svg10.dtd">
<svg version="1.0" xmlns="http://www.w3.org/2000/svg"
 width="120.000000pt" height="166.000000pt" viewBox="0 0 120.000000 166.000000"
 preserveAspectRatio="xMidYMid meet">
<metadata>
Created by potrace 1.16, written by Peter Selinger 2001-2019
</metadata>
<g transform="translate(0.000000,166.000000) scale(0.100000,-0.100000)"
fill="#000000" stroke="none">
<path d="M490 1649 c-154 -11 -257 -48 -358 -128 -60 -48 -88 -96 -100 -176
-32 -205 129 -353 311 -285 81 31 114 61 133 126 24 85 7 152 -59 221 -42 44
-49 57 -41 71 23 37 137 53 216 32 21 -6 57 -25 80 -43 55 -42 87 -127 88
-235 0 -167 -96 -248 -318 -267 l-82 -8 0 -63 c0 -35 2 -64 4 -64 23 0 193
-34 230 -47 67 -21 166 -121 189 -188 46 -132 -12 -304 -126 -374 -18 -11 -65
-25 -104 -31 -59 -9 -77 -9 -107 4 -20 8 -39 22 -43 32 -3 9 9 46 31 87 71
140 41 267 -79 330 -47 25 -146 29 -208 8 -91 -31 -147 -112 -147 -214 0 -152
60 -238 224 -317 137 -67 226 -84 404 -78 103 4 153 10 202 26 153 50 319 187
353 291 23 72 23 229 0 297 -24 71 -120 165 -215 209 -72 33 -73 34 -45 44 15
6 40 14 55 17 44 11 157 135 181 199 68 181 -26 368 -234 466 -111 52 -260 72
-435 58z"/>
</g>
</svg>
