<?xml version="1.0" standalone="no"?>
<!DOCTYPE svg PUBLIC "-//W3C//DTD SVG 20010904//EN"
 "http://www.w3.org/TR/2001/REC-SVG-20010904/DTD/svg10.dtd">
<svg version="1.0" xmlns="http://www.w3.org/2000/svg"
 width="120.000000pt" height="166.000000pt" viewBox="0 0 120.000000 166.000000"
 preserveAspectRatio="xMidYMid meet">
<metadata>
Created by potrace 1.16, written by Peter Selinger 2001-2019
</metadata>
<g transform="translate(0.000000,166.000000) scale(0.100000,-0.100000)"
fill="#000000" stroke="none">
<path d="M434 1641 c-97 -26 -207 -83 -265 -138 -128 -120 -156 -313 -62 -423
52 -60 103 -83 198 -88 76 -4 82 -2 125 27 69 45 95 99 95 191 0 94 -22 133
-103 187 -66 44 -75 66 -35 87 43 22 148 38 201 31 93 -13 141 -34 172 -77 57
-79 65 -246 17 -352 -60 -132 -94 -165 -317 -317 -63 -43 -141 -101 -174 -130
-87 -78 -192 -214 -220 -285 -24 -60 -66 -240 -66 -283 l0 -21 557 2 558 3 42
155 c26 93 42 172 40 197 l-2 42 -454 6 c-250 3 -457 8 -460 11 -8 8 70 75
132 116 27 17 128 65 225 105 217 91 283 129 395 230 118 106 136 134 148 223
23 166 -18 288 -134 396 -49 45 -71 58 -155 85 -88 29 -111 33 -242 36 -119 2
-158 0 -216 -16z"/>
</g>
</svg>
