<?xml version="1.0" standalone="no"?>
<!DOCTYPE svg PUBLIC "-//W3C//DTD SVG 20010904//EN"
 "http://www.w3.org/TR/2001/REC-SVG-20010904/DTD/svg10.dtd">
<svg version="1.0" xmlns="http://www.w3.org/2000/svg"
 width="350.000000pt" height="309.000000pt" viewBox="0 0 350.000000 309.000000"
 preserveAspectRatio="xMidYMid meet">

<g transform="translate(0.000000,309.000000) scale(0.100000,-0.100000)"
fill="#000000" stroke="none">
<path d="M1623 2623 c-37 -89 -696 -1680 -704 -1700 -8 -23 -8 -23 74 -23 l82
0 265 641 c146 352 267 642 270 644 3 1 124 -285 270 -637 146 -352 270 -642
275 -644 6 -3 92 -3 191 -2 l180 3 -134 320 c-73 176 -237 570 -362 875 l-229
555 -81 3 -81 3 -16 -38z"/>
</g>
</svg>
