<?xml version="1.0" standalone="no"?>
<!DOCTYPE svg PUBLIC "-//W3C//DTD SVG 20010904//EN"
 "http://www.w3.org/TR/2001/REC-SVG-20010904/DTD/svg10.dtd">
<svg version="1.0" xmlns="http://www.w3.org/2000/svg"
 width="515.000000pt" height="406.000000pt" viewBox="0 0 515.000000 406.000000"
 preserveAspectRatio="xMidYMid meet">

<g transform="translate(0.000000,406.000000) scale(0.100000,-0.100000)"
fill="#000000" stroke="none">
<path d="M1804 3737 c-2 -7 -3 -67 -2 -133 l3 -119 203 -3 202 -2 0 -90 0 -89
-32 -5 c-148 -24 -228 -42 -318 -72 -507 -168 -888 -596 -1001 -1126 -26 -122
-36 -372 -19 -504 73 -585 491 -1081 1056 -1252 296 -90 620 -88 909 4 238 76
459 216 641 407 196 205 324 450 385 737 32 151 32 429 0 580 -60 283 -179
522 -360 724 l-71 79 79 82 c92 96 105 130 72 198 -25 52 -65 77 -123 77 -54
0 -77 -16 -166 -110 l-71 -75 -38 23 c-182 108 -376 181 -548 208 -60 9 -116
18 -122 20 -9 2 -13 30 -13 93 l0 91 203 2 202 3 0 130 0 130 -533 3 c-433 2
-534 0 -538 -11z m749 -722 c368 -64 683 -285 870 -610 178 -309 212 -699 91
-1039 -175 -491 -649 -825 -1169 -826 -469 0 -900 261 -1112 676 -55 107 -105
257 -124 369 -17 103 -15 324 5 426 74 387 324 721 667 890 102 50 233 94 335
113 106 19 330 20 437 1z"/>
<path d="M2304 2756 c-59 -26 -68 -106 -17 -146 73 -57 172 26 129 108 -9 17
-29 35 -47 41 -18 6 -32 11 -33 11 -1 -1 -15 -7 -32 -14z"/>
<path d="M2250 2140 c0 -260 3 -326 14 -348 8 -15 114 -126 235 -247 l221
-220 62 63 63 62 -208 208 -207 207 0 298 0 297 -90 0 -90 0 0 -320z"/>
<path d="M1389 1891 c-48 -48 -36 -111 26 -137 75 -31 142 36 111 110 -26 63
-89 75 -137 27z"/>
<path d="M3187 1909 c-11 -6 -25 -26 -33 -45 -39 -92 85 -165 146 -86 57 72
-33 177 -113 131z"/>
<path d="M2280 955 c-52 -55 -15 -145 60 -145 59 0 102 56 85 110 -19 61 -102
81 -145 35z"/>
</g>
</svg>
