<?xml version="1.0" standalone="no"?>
<!DOCTYPE svg PUBLIC "-//W3C//DTD SVG 20010904//EN"
 "http://www.w3.org/TR/2001/REC-SVG-20010904/DTD/svg10.dtd">
<svg version="1.0" xmlns="http://www.w3.org/2000/svg"
 width="407.000000pt" height="412.000000pt" viewBox="0 0 407.000000 412.000000"
 preserveAspectRatio="xMidYMid meet">

<g transform="translate(0.000000,412.000000) scale(0.100000,-0.100000)"
fill="#000000" stroke="none">
<path d="M2448 3615 c-279 -70 -508 -312 -648 -685 l-36 -95 -192 -3 c-219 -3
-198 8 -186 -99 l7 -53 159 0 160 0 -7 -27 c-43 -171 -84 -373 -131 -648 -70
-417 -97 -551 -141 -695 -57 -189 -137 -319 -226 -367 -42 -23 -177 -24 -227
-1 l-35 15 44 12 c58 16 133 87 161 153 61 142 -20 294 -156 292 -120 -2 -200
-96 -211 -247 -6 -72 -4 -81 27 -143 59 -121 198 -195 366 -195 166 -1 294 58
421 196 216 233 334 551 555 1505 l34 145 222 3 222 2 0 29 c0 15 -3 49 -6 75
l-7 46 -193 0 c-107 0 -194 4 -194 9 0 22 52 205 85 301 71 203 168 350 260
391 59 27 157 25 220 -5 l50 -24 -48 -12 c-64 -17 -137 -83 -167 -152 -44
-101 -23 -204 52 -258 139 -101 310 22 312 225 2 134 -77 243 -213 297 -72 28
-247 35 -333 13z"/>
</g>
</svg>
