<?xml version="1.0" standalone="no"?>
<!DOCTYPE svg PUBLIC "-//W3C//DTD SVG 20010904//EN"
 "http://www.w3.org/TR/2001/REC-SVG-20010904/DTD/svg10.dtd">
<svg version="1.0" xmlns="http://www.w3.org/2000/svg"
 width="200.000000pt" height="200.000000pt" viewBox="0 0 200.000000 200.000000"
 preserveAspectRatio="xMidYMid meet">
<metadata>
Created by potrace 1.16, written by Peter Selinger 2001-2019
</metadata>
<g transform="translate(0.000000,200.000000) scale(0.100000,-0.100000)"
fill="#000000" stroke="none">
<path d="M150 1919 c-62 -26 -100 -85 -100 -156 0 -69 24 -100 142 -189 200
-151 398 -305 398 -310 0 -3 -16 -25 -36 -50 l-36 -44 -29 23 c-15 12 -28 27
-29 32 0 6 -9 21 -20 35 l-20 25 -35 -39 c-47 -52 -46 -72 4 -81 27 -4 57 -23
105 -66 37 -33 80 -67 94 -77 22 -14 406 -324 1099 -889 90 -72 171 -81 232
-24 24 22 31 38 31 66 0 53 -20 84 -107 162 -168 150 -816 676 -1181 959 l-93
72 49 63 c27 35 56 65 65 67 21 4 193 -132 239 -190 53 -64 78 -122 97 -217 9
-46 21 -86 27 -88 16 -5 157 137 202 204 47 70 102 176 102 199 0 11 -5 14
-17 9 -110 -42 -191 -41 -314 6 -89 34 -120 55 -700 468 -52 37 -123 50 -169
30z m239 -167 l34 -29 -17 -34 c-9 -19 -34 -54 -56 -78 l-40 -43 -47 35 c-56
41 -66 80 -23 85 37 6 50 21 50 58 0 21 6 37 17 43 20 11 32 5 82 -37z m179
-146 c34 -27 62 -56 62 -65 0 -20 -88 -131 -103 -131 -14 0 -167 118 -167 129
0 4 25 37 55 74 49 60 58 66 74 55 9 -7 45 -35 79 -62z m437 -665 c497 -395
841 -685 869 -732 17 -28 17 -32 1 -49 -24 -27 -49 -30 -92 -10 -21 10 -183
137 -359 282 -177 144 -414 337 -527 428 -113 91 -205 168 -204 172 5 20 73
95 82 90 6 -3 109 -85 230 -181z"/>
</g>
</svg>
