<?xml version="1.0" standalone="no"?>
<!DOCTYPE svg PUBLIC "-//W3C//DTD SVG 20010904//EN"
 "http://www.w3.org/TR/2001/REC-SVG-20010904/DTD/svg10.dtd">
<svg version="1.0" xmlns="http://www.w3.org/2000/svg"
 width="318.000000pt" height="252.000000pt" viewBox="0 0 318.000000 252.000000"
 preserveAspectRatio="xMidYMid meet">

<g transform="translate(0.000000,252.000000) scale(0.100000,-0.100000)"
fill="#000000" stroke="none">
<path d="M2160 2077 l0 -184 -107 -37 c-60 -20 -114 -36 -120 -36 -10 0 -13
44 -13 186 l0 185 -27 -3 -28 -3 -3 -196 -2 -195 -70 -23 -70 -22 0 -111 c0
-125 -11 -115 93 -84 l47 15 0 -213 0 -214 -67 -23 -68 -24 -3 -113 c-1 -61
-1 -112 1 -112 2 0 30 9 62 20 32 11 62 20 66 20 5 0 10 -78 11 -172 l3 -173
27 -3 28 -3 2 188 3 188 110 37 c61 20 113 37 118 37 4 1 7 -82 7 -184 l0
-185 30 0 30 0 0 194 0 194 73 24 72 25 3 111 c1 62 1 112 0 112 -2 0 -32 -9
-66 -20 -35 -11 -68 -20 -73 -20 -6 0 -8 86 -7 213 l3 212 73 23 72 23 0 110
c0 124 4 120 -85 89 -32 -11 -60 -20 -62 -20 -1 0 -3 79 -3 175 l0 175 -30 0
-30 0 0 -183z m0 -625 l0 -219 -107 -33 c-60 -18 -114 -35 -120 -38 -10 -3
-13 43 -13 211 l0 215 118 40 c64 22 118 41 120 41 1 1 2 -97 2 -217z"/>
<path d="M470 1931 c0 -16 9 -19 64 -23 75 -5 101 -22 116 -77 13 -48 13
-1064 0 -1112 -14 -51 -39 -69 -114 -82 -42 -7 -66 -16 -66 -24 0 -10 59 -13
290 -13 240 0 290 2 290 14 0 9 -19 16 -57 21 -32 4 -69 13 -84 20 -49 26 -53
49 -57 338 l-4 267 162 0 c212 0 241 -14 263 -129 9 -47 16 -61 29 -61 17 0
18 17 18 230 0 218 -1 230 -19 230 -14 0 -22 -12 -30 -47 -32 -124 -50 -133
-261 -133 l-160 0 0 265 0 265 173 0 c283 0 342 -20 395 -132 17 -35 33 -71
36 -80 3 -10 12 -18 21 -18 13 0 15 22 15 150 l0 150 -510 0 c-493 0 -510 -1
-510 -19z"/>
</g>
</svg>
