<?xml version="1.0" standalone="no"?>
<!DOCTYPE svg PUBLIC "-//W3C//DTD SVG 20010904//EN"
 "http://www.w3.org/TR/2001/REC-SVG-20010904/DTD/svg10.dtd">
<svg version="1.0" xmlns="http://www.w3.org/2000/svg"
 width="381.000000pt" height="681.000000pt" viewBox="0 0 381.000000 681.000000"
 preserveAspectRatio="xMidYMid meet">

<g transform="translate(0.000000,681.000000) scale(0.100000,-0.100000)"
fill="#000000" stroke="none">
<path d="M1216 6318 c-3 -7 -10 -49 -16 -93 -54 -364 -155 -755 -248 -955 -25
-54 -131 -238 -175 -305 -76 -114 -266 -360 -362 -469 l-96 -108 3 -147 3
-146 670 -5 670 -5 4 -25 c2 -14 0 -116 -4 -227 l-7 -202 -35 -41 c-59 -69
-113 -93 -215 -98 l-89 -4 3 -87 3 -86 753 -3 752 -2 2 80 c0 44 1 86 2 93 1
8 -26 14 -89 17 -79 5 -98 10 -161 43 -39 21 -84 51 -99 67 l-28 29 2 228 c1
125 5 230 7 233 3 3 87 7 187 10 l182 5 3 120 c1 66 -2 127 -8 135 -7 12 -44
16 -187 20 l-178 5 -3 663 c-1 459 -5 662 -13 662 -6 0 -181 -170 -390 -378
l-379 -379 0 -286 c0 -157 -3 -292 -6 -301 -5 -14 -60 -16 -510 -16 -358 0
-504 3 -504 11 0 6 116 131 258 277 516 533 605 635 966 1107 42 55 102 133
134 174 128 166 292 386 292 394 0 4 -245 7 -545 7 -428 0 -546 -3 -549 -12z"/>
<path d="M1216 3258 c-2 -7 -18 -98 -36 -203 -35 -211 -106 -512 -151 -650
-92 -276 -297 -597 -616 -968 l-94 -109 3 -141 3 -142 665 -3 c386 -1 668 -6
673 -11 6 -6 7 -101 2 -235 l-7 -225 -33 -38 c-54 -64 -126 -96 -222 -101
l-83 -5 0 -83 0 -84 754 0 c678 0 754 2 760 16 8 20 8 93 0 133 -6 30 -7 31
-63 29 -74 -2 -154 23 -227 70 -92 60 -90 52 -84 312 l5 225 176 3 c129 2 180
6 188 15 7 9 8 55 4 135 l-6 122 -168 0 c-92 0 -174 3 -183 6 -14 6 -16 74
-16 670 0 365 -4 664 -8 664 -5 0 -181 -171 -390 -380 l-382 -380 0 -290 c0
-276 -1 -290 -19 -300 -26 -13 -970 -14 -991 0 -12 8 1 26 70 96 47 47 117
118 155 158 39 39 127 130 195 202 358 376 393 416 706 819 257 331 514 670
514 679 0 3 -245 6 -545 6 -428 0 -546 -3 -549 -12z"/>
</g>
</svg>
