<svg width="174" height="174" xmlns="http://www.w3.org/2000/svg" xmlns:xlink="http://www.w3.org/1999/xlink" xml:space="preserve" overflow="hidden"><g><path d="M148.625 21.75 25.375 21.75C23.3729 21.75 21.75 23.3729 21.75 25.375L21.75 148.625C21.75 150.627 23.3729 152.25 25.375 152.25L148.625 152.25C150.627 152.25 152.25 150.627 152.25 148.625L152.25 25.375C152.25 23.3729 150.627 21.75 148.625 21.75ZM110.254 103.312 114.188 103.312 114.188 144.601C114.179 144.734 114.179 144.867 114.188 145L90.625 145 90.625 103.312 94.5581 103.312C96.3706 103.312 97.875 101.319 97.875 98.8356L97.875 29 106.938 29 106.938 98.8175C106.938 101.301 108.424 103.312 110.254 103.312ZM63.7456 103.312C65.5581 103.312 67.0625 101.319 67.0625 98.8356L67.0625 29 76.125 29 76.125 98.8175C76.125 101.301 77.6113 103.294 79.4419 103.294L83.375 103.294 83.375 145 59.8125 145 59.8125 103.312ZM29 29 45.3125 29 45.3125 98.8175C45.3125 101.301 46.7987 103.294 48.6294 103.294L52.5625 103.294 52.5625 145 29 145ZM145 145 121.438 145C121.446 144.867 121.446 144.734 121.438 144.601L121.438 103.312 125.371 103.312C127.183 103.312 128.688 101.319 128.688 98.8356L128.688 29 145 29Z"/></g></svg>