<?xml version="1.0" standalone="no"?>
<!DOCTYPE svg PUBLIC "-//W3C//DTD SVG 20010904//EN"
 "http://www.w3.org/TR/2001/REC-SVG-20010904/DTD/svg10.dtd">
<svg version="1.0" xmlns="http://www.w3.org/2000/svg"
 width="297.000000pt" height="315.000000pt" viewBox="0 0 297.000000 315.000000"
 preserveAspectRatio="xMidYMid meet">

<g transform="translate(0.000000,315.000000) scale(0.100000,-0.100000)"
fill="#000000" stroke="none">
<path d="M1303 2640 c-103 -15 -191 -79 -211 -153 -11 -39 0 -122 21 -164 55
-104 232 -164 437 -148 106 8 256 37 333 63 52 17 58 18 54 3 -13 -46 -331
-738 -343 -747 -20 -16 -339 -92 -394 -95 -83 -3 -81 -6 -54 59 47 116 44 190
-12 252 -43 47 -89 64 -174 63 -74 -2 -138 -22 -188 -59 -53 -41 -72 -80 -72
-149 1 -199 191 -293 512 -251 68 9 168 27 222 41 55 14 103 24 107 23 4 -2
-102 -250 -236 -553 -135 -302 -245 -556 -245 -563 0 -9 14 -12 51 -10 l50 3
476 1073 c261 591 472 1076 470 1079 -3 2 -76 -18 -164 -46 -187 -59 -267 -80
-346 -91 -83 -12 -89 -8 -67 43 52 119 50 205 -6 267 -49 54 -122 74 -221 60z"/>
</g>
</svg>
