<svg width="196" height="195" xmlns="http://www.w3.org/2000/svg" xmlns:xlink="http://www.w3.org/1999/xlink" xml:space="preserve" overflow="hidden"><defs><filter id="fx0" x="-10%" y="-10%" width="120%" height="120%" filterUnits="userSpaceOnUse" primitiveUnits="userSpaceOnUse"><feComponentTransfer color-interpolation-filters="sRGB"><feFuncR type="discrete" tableValues="0 0"/><feFuncG type="discrete" tableValues="0 0"/><feFuncB type="discrete" tableValues="0 0"/><feFuncA type="linear" slope="0.219608" intercept="0"/></feComponentTransfer><feGaussianBlur stdDeviation="1.77778 1.77778"/></filter><clipPath id="clip1"><rect x="464" y="246" width="196" height="195"/></clipPath><clipPath id="clip2"><rect x="15" y="17" width="169" height="167"/></clipPath></defs><g clip-path="url(#clip1)" transform="translate(-464 -246)"><g clip-path="url(#clip2)" filter="url(#fx0)" transform="translate(463 244)"><g><g><g><g><path d="M54.9167 62.9167 54.9167 111.792C54.9169 112.808 55.3209 113.783 56.0398 114.502L61.9527 120.417 55.0815 127.29C54.3626 128.009 53.9585 128.983 53.9583 130L53.9583 155.875C53.971 166.984 62.9739 175.987 74.0833 176L156.5 176C167.085 176.011 175.675 167.438 175.686 156.853 175.695 147.73 169.273 139.865 160.333 138.05L160.333 86.875C160.334 85.6238 159.723 84.4512 158.698 83.7336L152.531 79.4172 159.446 71.12C160.489 69.8674 160.626 68.092 159.787 66.6944L155.57 59.6775 159.202 56.0358C159.922 55.3201 160.329 54.3484 160.333 53.3333L160.333 44.7083C160.321 33.5989 151.318 24.596 140.208 24.5833L42.4583 24.5833C31.3946 24.5494 22.3914 33.478 22.3333 44.5416 22.3277 50.6103 25.1035 56.3471 29.8658 60.1087 29.9348 60.1643 30.0058 60.218 30.0805 60.2678 32.5032 61.9775 35.3897 62.9075 38.3547 62.9339ZM50.2592 55.25C50.7947 53.9591 51.0747 52.5766 51.0833 51.179 51.1284 44.9157 46.0875 39.8019 39.8243 39.7568 39.7439 39.7562 39.6636 39.7564 39.5833 39.7576 37.4662 39.7576 35.75 41.4738 35.75 43.5909 35.75 45.7081 37.4662 47.4242 39.5833 47.4242 41.6326 47.3573 43.348 48.9645 43.4149 51.0138 43.4167 51.0688 43.4172 51.124 43.4167 51.179 43.3201 52.664 42.4141 53.9752 41.0592 54.5907 38.9499 55.6241 36.4421 55.4066 34.5425 54.0252 31.6708 51.7147 30.0006 48.2275 30 44.5416 30.046 37.6609 35.6613 32.1206 42.5417 32.1666 49.4223 32.2126 54.9627 37.8277 54.9167 44.7083L54.9167 55.25ZM79.8333 137.686C77.4204 137.575 75.0208 138.099 72.8739 139.206 68.9917 141.139 66.5039 145.068 66.4167 149.404 66.3716 155.668 71.4125 160.781 77.6757 160.827 77.756 160.827 77.8364 160.827 77.9167 160.826 80.0338 160.826 81.75 159.11 81.75 156.992 81.75 154.875 80.0338 153.159 77.9167 153.159 75.8674 153.226 74.1519 151.619 74.0851 149.57 74.0833 149.515 74.0828 149.459 74.0833 149.404 74.1799 147.919 75.0859 146.608 76.4408 145.993 78.5518 144.962 81.0596 145.183 82.9575 146.568 85.8266 148.876 87.4965 152.359 87.5 156.042 87.4461 162.873 81.8731 168.372 75.0417 168.333L74.0833 168.333C67.2063 168.325 61.6334 162.752 61.625 155.875L61.625 131.589 70.0852 123.127C71.5817 121.63 71.5817 119.203 70.0852 117.706L62.5833 110.203 62.5833 44.7083C62.5883 40.1858 61.0623 35.7947 58.2536 32.25L140.208 32.25C147.085 32.2584 152.658 37.8313 152.667 44.7083L152.667 51.7444 148.04 56.3732C146.797 57.6173 146.56 59.5477 147.465 61.0556L151.814 68.3044 143.971 77.7133C142.615 79.3398 142.835 81.7569 144.462 83.1122 144.545 83.181 144.63 83.2464 144.718 83.3081L152.667 88.8722 152.667 137.667ZM156.5 168.333 90.8637 168.333C96.1421 161.707 96.6049 152.453 92.0137 145.333L156.5 145.333C162.851 145.333 168 150.482 168 156.833 168 163.185 162.851 168.333 156.5 168.333Z"/><path d="M100.917 55.25 133.5 55.25 133.5 62.9167 100.917 62.9167Z"/><path d="M81.75 55.25 93.25 55.25 93.25 62.9167 81.75 62.9167Z"/><path d="M100.917 112.75 133.5 112.75 133.5 120.417 100.917 120.417Z"/><path d="M81.75 112.75 93.25 112.75 93.25 120.417 81.75 120.417Z"/><path d="M81.75 74.4167 114.333 74.4167 114.333 82.0833 81.75 82.0833Z"/><path d="M122 74.4167 133.5 74.4167 133.5 82.0833 122 82.0833Z"/><path d="M81.75 93.5833 133.5 93.5833 133.5 101.25 81.75 101.25Z"/></g></g></g></g></g><g><g><g><path d="M517.917 301.583 517.917 350.458C517.917 351.475 518.321 352.45 519.04 353.169L524.953 359.083 518.081 365.956C517.363 366.675 516.958 367.65 516.958 368.667L516.958 394.542C516.971 405.651 525.974 414.654 537.083 414.667L619.5 414.667C630.085 414.677 638.675 406.105 638.686 395.519 638.695 386.397 632.273 378.532 623.333 376.717L623.333 325.542C623.334 324.29 622.723 323.118 621.698 322.4L615.531 318.084 622.446 309.787C623.489 308.534 623.626 306.759 622.787 305.361L618.57 298.344 622.203 294.703C622.922 293.987 623.329 293.015 623.333 292L623.333 283.375C623.321 272.266 614.318 263.263 603.208 263.25L505.458 263.25C494.395 263.216 485.391 272.145 485.333 283.208 485.328 289.277 488.104 295.014 492.866 298.775 492.935 298.831 493.006 298.885 493.081 298.935 495.503 300.644 498.39 301.574 501.355 301.601ZM513.259 293.917C513.795 292.626 514.075 291.243 514.083 289.846 514.128 283.582 509.088 278.469 502.824 278.423 502.744 278.423 502.664 278.423 502.583 278.424 500.466 278.424 498.75 280.14 498.75 282.258 498.75 284.375 500.466 286.091 502.583 286.091 504.633 286.024 506.348 287.631 506.415 289.68 506.417 289.735 506.417 289.791 506.417 289.846 506.32 291.331 505.414 292.642 504.059 293.257 501.95 294.291 499.442 294.073 497.543 292.692 494.671 290.381 493.001 286.894 493 283.208 493.046 276.328 498.661 270.787 505.542 270.833 512.422 270.879 517.963 276.494 517.917 283.375L517.917 293.917ZM542.833 376.353C540.42 376.241 538.021 376.766 535.874 377.872 531.992 379.806 529.504 383.735 529.417 388.071 529.372 394.334 534.412 399.448 540.676 399.493 540.756 399.494 540.836 399.494 540.917 399.492 543.034 399.492 544.75 397.776 544.75 395.659 544.75 393.542 543.034 391.826 540.917 391.826 538.867 391.893 537.152 390.286 537.085 388.236 537.083 388.181 537.083 388.126 537.083 388.071 537.18 386.586 538.086 385.275 539.441 384.659 541.552 383.629 544.06 383.85 545.958 385.234 548.827 387.543 550.497 391.026 550.5 394.708 550.446 401.54 544.873 407.038 538.042 407L537.083 407C530.206 406.992 524.633 401.419 524.625 394.542L524.625 370.256 533.085 361.794C534.582 360.297 534.582 357.87 533.085 356.373L525.583 348.869 525.583 283.375C525.588 278.852 524.062 274.461 521.254 270.917L603.208 270.917C610.085 270.925 615.658 276.498 615.667 283.375L615.667 290.411 611.04 295.04C609.797 296.284 609.56 298.214 610.465 299.722L614.814 306.971 606.971 316.38C605.615 318.006 605.836 320.424 607.462 321.779 607.545 321.848 607.63 321.913 607.718 321.975L615.667 327.539 615.667 376.333ZM619.5 407 553.864 407C559.142 400.374 559.605 391.119 555.014 384L619.5 384C625.851 384 631 389.149 631 395.5 631 401.851 625.851 407 619.5 407Z"/><path d="M563.917 293.917 596.5 293.917 596.5 301.583 563.917 301.583Z"/><path d="M544.75 293.917 556.25 293.917 556.25 301.583 544.75 301.583Z"/><path d="M563.917 351.417 596.5 351.417 596.5 359.083 563.917 359.083Z"/><path d="M544.75 351.417 556.25 351.417 556.25 359.083 544.75 359.083Z"/><path d="M544.75 313.083 577.333 313.083 577.333 320.75 544.75 320.75Z"/><path d="M585 313.083 596.5 313.083 596.5 320.75 585 320.75Z"/><path d="M544.75 332.25 596.5 332.25 596.5 339.917 544.75 339.917Z"/></g></g></g></g></svg>