<?xml version="1.0" standalone="no"?>
<!DOCTYPE svg PUBLIC "-//W3C//DTD SVG 20010904//EN"
 "http://www.w3.org/TR/2001/REC-SVG-20010904/DTD/svg10.dtd">
<svg version="1.0" xmlns="http://www.w3.org/2000/svg"
 width="502.000000pt" height="524.000000pt" viewBox="0 0 502.000000 524.000000"
 preserveAspectRatio="xMidYMid meet">
<metadata>
Created by potrace 1.16, written by Peter Selinger 2001-2019
</metadata>
<g transform="translate(0.000000,524.000000) scale(0.100000,-0.100000)"
fill="#000000" stroke="none">
<path d="M1637 5004 c-22 -7 -59 -79 -109 -214 -33 -88 -326 -1030 -468 -1505
-23 -77 -59 -196 -80 -265 -212 -691 -578 -1962 -625 -2169 -14 -59 -14 -74
-1 -129 29 -126 85 -176 197 -176 54 0 73 4 103 24 33 23 86 106 86 136 0 17
229 23 1460 34 970 9 1076 9 1085 -6 6 -8 27 -42 48 -75 63 -102 156 -125 236
-61 54 43 72 82 78 164 5 71 3 81 -81 343 -48 149 -95 295 -106 325 -10 30
-55 170 -100 310 -45 140 -108 336 -140 435 -32 99 -102 315 -155 480 -53 165
-123 381 -156 480 -32 99 -59 191 -59 203 0 13 17 64 39 115 21 51 58 141 81
200 39 98 45 108 64 102 59 -19 58 -19 164 88 56 57 102 111 102 120 0 20 -45
57 -98 81 -23 10 -42 25 -42 31 0 7 15 46 34 86 43 97 86 221 86 252 0 26 -23
57 -41 57 -27 0 -70 -68 -129 -203 l-65 -148 -35 7 c-19 4 -51 8 -70 8 -40 1
-38 6 -69 -156 -11 -59 -18 -115 -15 -123 4 -9 19 -22 35 -30 l28 -15 -23 -63
c-81 -214 -101 -254 -110 -226 -3 8 -50 156 -106 329 -56 173 -130 403 -165
510 -35 107 -93 290 -130 405 -37 116 -73 216 -79 223 -9 9 -91 14 -332 17
-175 2 -327 2 -337 -1z m577 -53 l60 -6 67 -210 c37 -115 111 -345 164 -510
53 -165 133 -413 178 -552 l80 -251 -36 -83 c-19 -46 -39 -85 -44 -86 -5 -2
-28 63 -51 144 -23 82 -80 281 -127 443 -119 411 -230 800 -256 898 -17 67
-26 85 -45 92 -34 13 -502 0 -514 -14 -5 -7 -20 -54 -34 -106 -65 -249 -332
-1203 -421 -1505 -29 -99 -90 -308 -135 -465 -90 -315 -135 -463 -215 -710
-67 -207 -135 -459 -135 -498 0 -47 24 -50 295 -40 132 5 673 11 1203 12 820
3 966 5 978 17 12 13 11 28 -12 114 -67 265 -173 596 -300 943 -42 114 -93
254 -114 312 -21 58 -43 118 -49 133 -6 16 -11 38 -11 50 0 27 59 177 70 177
5 0 24 -48 43 -107 81 -249 160 -493 237 -733 45 -140 88 -273 95 -295 8 -22
59 -179 114 -350 54 -170 142 -443 195 -605 113 -352 112 -348 95 -354 -8 -3
-597 -9 -1309 -15 -712 -6 -1426 -14 -1586 -17 -189 -5 -293 -3 -297 3 -7 11
26 152 83 353 110 388 292 1018 320 1105 10 33 64 215 120 405 57 190 180 599
275 910 95 311 198 649 229 751 106 354 202 622 234 647 17 13 440 16 556 3z
m-411 -178 c2 -5 -2 -138 -9 -298 -7 -159 -20 -481 -29 -715 -8 -234 -20 -498
-25 -588 -11 -194 -30 -968 -33 -1342 l-2 -265 -190 -7 c-417 -16 -700 -25
-706 -22 -15 8 50 250 141 529 67 204 65 200 165 545 70 242 109 374 225 773
45 153 129 451 150 532 19 74 85 310 115 415 18 63 52 185 75 270 23 85 43
161 45 168 5 13 71 17 78 5z m229 -948 c1 -598 -2 -1063 -10 -1256 -9 -215 -9
-371 -3 -520 6 -118 11 -275 13 -349 l3 -135 -135 0 -135 0 -3 305 c-4 403 20
1198 58 1940 5 107 14 341 20 520 5 179 13 353 16 388 l6 63 84 -3 84 -3 2
-950z m169 890 c9 -33 42 -148 72 -255 105 -372 308 -1076 344 -1189 30 -98
33 -117 23 -140 -11 -22 -157 -383 -455 -1126 -42 -104 -82 -203 -89 -220 -22
-50 -30 270 -20 795 5 256 7 843 6 1305 -3 589 -1 848 7 868 10 25 15 28 53
25 l42 -3 17 -60z m617 -2026 c134 -367 292 -851 337 -1031 9 -35 18 -71 21
-80 5 -17 -24 -18 -520 -18 -388 0 -526 3 -526 11 0 7 21 57 46 113 25 55 82
193 126 306 44 113 126 324 183 470 57 146 122 310 145 365 23 55 49 116 57
135 11 28 16 32 23 19 5 -8 54 -139 108 -290z m772 -1959 c0 -29 -26 -76 -52
-94 -12 -9 -41 -16 -63 -16 -42 0 -68 19 -108 80 -32 47 -26 50 103 50 114 0
120 -1 120 -20z m-2914 -42 c-18 -88 -135 -126 -210 -67 -26 20 -56 68 -56 89
0 6 48 10 136 10 l137 0 -7 -32z"/>
</g>
</svg>
